<?xml version="1.0" encoding="UTF-8" standalone="no"?>
<svg
   xmlns:dc="http://purl.org/dc/elements/1.1/"
   xmlns:cc="http://creativecommons.org/ns#"
   xmlns:rdf="http://www.w3.org/1999/02/22-rdf-syntax-ns#"
   xmlns:svg="http://www.w3.org/2000/svg"
   xmlns="http://www.w3.org/2000/svg"
   xmlns:sodipodi="http://sodipodi.sourceforge.net/DTD/sodipodi-0.dtd"
   xmlns:inkscape="http://www.inkscape.org/namespaces/inkscape"
   viewBox="28 32 1073 679"
   width="1045px"
   height="647px"
   version="1.1"
   id="svg306"
   sodipodi:docname="MPD.svg"
   inkscape:export-filename="/home/hans/Repos/eval-c2-c3-v2/correction/MPD.png"
   inkscape:export-xdpi="96"
   inkscape:export-ydpi="96"
   inkscape:version="0.92.3 (2405546, 2018-03-11)">
  <metadata
     id="metadata312">
    <rdf:RDF>
      <cc:Work
         rdf:about="">
        <dc:format>image/svg+xml</dc:format>
        <dc:type
           rdf:resource="http://purl.org/dc/dcmitype/StillImage" />
        <dc:title></dc:title>
      </cc:Work>
    </rdf:RDF>
  </metadata>
  <defs
     id="defs310" />
  <sodipodi:namedview
     pagecolor="#ffffff"
     bordercolor="#666666"
     borderopacity="1"
     objecttolerance="10"
     gridtolerance="10"
     guidetolerance="10"
     inkscape:pageopacity="1"
     inkscape:pageshadow="2"
     inkscape:window-width="3374"
     inkscape:window-height="1879"
     id="namedview308"
     showgrid="false"
     inkscape:pagecheckerboard="false"
     inkscape:zoom="2.0633966"
     inkscape:cx="652.08794"
     inkscape:cy="368.5996"
     inkscape:window-x="0"
     inkscape:window-y="0"
     inkscape:window-maximized="0"
     inkscape:current-layer="svg306" />
  <line
     x1="276"
     y1="130"
     x2="266"
     y2="130"
     style="stroke:#c00;stroke-width:1;"
     id="line2" />
  <line
     x1="138"
     y1="77"
     x2="128"
     y2="77"
     style="stroke:#c00;stroke-width:1;"
     id="line4" />
  <line
     x1="266"
     y1="130"
     x2="138"
     y2="77"
     style="stroke:#c00;stroke-width:1;"
     id="line6" />
  <line
     x1="268.5"
     y1="130"
     x2="272.03553390593"
     y2="133.53553390593"
     style="stroke:#c00;stroke-width:2;"
     id="line8" />
  <line
     x1="268.5"
     y1="130"
     x2="272.03553390593"
     y2="126.46446609407"
     style="stroke:#c00;stroke-width:2;"
     id="line10" />
  <line
     x1="133"
     y1="77"
     x2="136.53553390593"
     y2="80.535533905933"
     style="stroke:#c00;stroke-width:2;"
     id="line12" />
  <line
     x1="133"
     y1="77"
     x2="136.53553390593"
     y2="73.464466094067"
     style="stroke:#c00;stroke-width:2;"
     id="line14" />
  <line
     x1="276"
     y1="150"
     x2="266"
     y2="150"
     style="stroke:#0bf;stroke-width:1;"
     id="line16" />
  <line
     x1="121"
     y1="265"
     x2="111"
     y2="265"
     style="stroke:#0bf;stroke-width:1;"
     id="line18" />
  <line
     x1="266"
     y1="150"
     x2="121"
     y2="265"
     style="stroke:#0bf;stroke-width:1;"
     id="line20" />
  <line
     x1="268.5"
     y1="150"
     x2="272.03553390593"
     y2="153.53553390593"
     style="stroke:#0bf;stroke-width:2;"
     id="line22" />
  <line
     x1="268.5"
     y1="150"
     x2="272.03553390593"
     y2="146.46446609407"
     style="stroke:#0bf;stroke-width:2;"
     id="line24" />
  <line
     x1="116"
     y1="265"
     x2="119.53553390593"
     y2="268.53553390593"
     style="stroke:#0bf;stroke-width:2;"
     id="line26" />
  <line
     x1="116"
     y1="265"
     x2="119.53553390593"
     y2="261.46446609407"
     style="stroke:#0bf;stroke-width:2;"
     id="line28" />
  <line
     x1="267"
     y1="314"
     x2="257"
     y2="314"
     style="stroke:#0b0;stroke-width:1;"
     id="line30" />
  <line
     x1="266"
     y1="110"
     x2="276"
     y2="110"
     style="stroke:#0b0;stroke-width:1;"
     id="line32" />
  <line
     x1="257"
     y1="314"
     x2="266"
     y2="110"
     style="stroke:#0b0;stroke-width:1;"
     id="line34" />
  <line
     x1="259.5"
     y1="314"
     x2="263.03553390593"
     y2="317.53553390593"
     style="stroke:#0b0;stroke-width:2;"
     id="line36" />
  <line
     x1="259.5"
     y1="314"
     x2="263.03553390593"
     y2="310.46446609407"
     style="stroke:#0b0;stroke-width:2;"
     id="line38" />
  <line
     x1="271"
     y1="110"
     x2="267.46446609407"
     y2="113.53553390593"
     style="stroke:#0b0;stroke-width:2;"
     id="line40" />
  <line
     x1="271"
     y1="110"
     x2="267.46446609407"
     y2="106.46446609407"
     style="stroke:#0b0;stroke-width:2;"
     id="line42" />
  <line
     x1="379"
     y1="334"
     x2="389"
     y2="334"
     style="stroke:#bbb;stroke-width:1;"
     id="line44" />
  <line
     x1="394"
     y1="492"
     x2="384"
     y2="492"
     style="stroke:#bbb;stroke-width:1;"
     id="line46" />
  <line
     x1="389"
     y1="334"
     x2="394"
     y2="492"
     style="stroke:#bbb;stroke-width:1;"
     id="line48" />
  <line
     x1="386.5"
     y1="334"
     x2="382.96446609407"
     y2="337.53553390593"
     style="stroke:#bbb;stroke-width:2;"
     id="line50" />
  <line
     x1="386.5"
     y1="334"
     x2="382.96446609407"
     y2="330.46446609407"
     style="stroke:#bbb;stroke-width:2;"
     id="line52" />
  <line
     x1="389"
     y1="492"
     x2="392.53553390593"
     y2="495.53553390593"
     style="stroke:#bbb;stroke-width:2;"
     id="line54" />
  <line
     x1="389"
     y1="492"
     x2="392.53553390593"
     y2="488.46446609407"
     style="stroke:#bbb;stroke-width:2;"
     id="line56" />
  <line
     x1="909"
     y1="468"
     x2="899"
     y2="468"
     style="stroke:#cb0;stroke-width:1;"
     id="line58" />
  <line
     x1="402"
     y1="110"
     x2="392"
     y2="110"
     style="stroke:#cb0;stroke-width:1;"
     id="line60" />
  <line
     x1="899"
     y1="468"
     x2="402"
     y2="110"
     style="stroke:#cb0;stroke-width:1;"
     id="line62" />
  <line
     x1="901.5"
     y1="468"
     x2="905.03553390593"
     y2="471.53553390593"
     style="stroke:#cb0;stroke-width:2;"
     id="line64" />
  <line
     x1="901.5"
     y1="468"
     x2="905.03553390593"
     y2="464.46446609407"
     style="stroke:#cb0;stroke-width:2;"
     id="line66" />
  <line
     x1="397"
     y1="110"
     x2="400.53553390593"
     y2="113.53553390593"
     style="stroke:#cb0;stroke-width:2;"
     id="line68" />
  <line
     x1="397"
     y1="110"
     x2="400.53553390593"
     y2="106.46446609407"
     style="stroke:#cb0;stroke-width:2;"
     id="line70" />
  <line
     x1="1046"
     y1="528"
     x2="1056"
     y2="528"
     style="stroke:#b0b;stroke-width:1;"
     id="line72" />
  <line
     x1="1068"
     y1="219"
     x2="1058"
     y2="219"
     style="stroke:#b0b;stroke-width:1;"
     id="line74" />
  <line
     x1="1056"
     y1="528"
     x2="1068"
     y2="219"
     style="stroke:#b0b;stroke-width:1;"
     id="line76" />
  <line
     x1="1053.5"
     y1="528"
     x2="1049.9644660941"
     y2="531.53553390593"
     style="stroke:#b0b;stroke-width:2;"
     id="line78" />
  <line
     x1="1053.5"
     y1="528"
     x2="1049.9644660941"
     y2="524.46446609407"
     style="stroke:#b0b;stroke-width:2;"
     id="line80" />
  <line
     x1="1063"
     y1="219"
     x2="1066.5355339059"
     y2="222.53553390593"
     style="stroke:#b0b;stroke-width:2;"
     id="line82" />
  <line
     x1="1063"
     y1="219"
     x2="1066.5355339059"
     y2="215.46446609407"
     style="stroke:#b0b;stroke-width:2;"
     id="line84" />
  <line
     x1="909"
     y1="548"
     x2="899"
     y2="548"
     style="stroke:#333;stroke-width:1;"
     id="line86" />
  <line
     x1="662"
     y1="442"
     x2="652"
     y2="442"
     style="stroke:#333;stroke-width:1;"
     id="line88" />
  <line
     x1="899"
     y1="548"
     x2="662"
     y2="442"
     style="stroke:#333;stroke-width:1;"
     id="line90" />
  <line
     x1="901.5"
     y1="548"
     x2="905.03553390593"
     y2="551.53553390593"
     style="stroke:#333;stroke-width:2;"
     id="line92" />
  <line
     x1="901.5"
     y1="548"
     x2="905.03553390593"
     y2="544.46446609407"
     style="stroke:#333;stroke-width:2;"
     id="line94" />
  <line
     x1="657"
     y1="442"
     x2="660.53553390593"
     y2="445.53553390593"
     style="stroke:#333;stroke-width:2;"
     id="line96" />
  <line
     x1="657"
     y1="442"
     x2="660.53553390593"
     y2="438.46446609407"
     style="stroke:#333;stroke-width:2;"
     id="line98" />
  <line
     x1="909"
     y1="568"
     x2="899"
     y2="568"
     style="stroke:#0b0;stroke-width:1;"
     id="line100" />
  <line
     x1="694"
     y1="634"
     x2="684"
     y2="634"
     style="stroke:#0b0;stroke-width:1;"
     id="line102" />
  <line
     x1="899"
     y1="568"
     x2="694"
     y2="634"
     style="stroke:#0b0;stroke-width:1;"
     id="line104" />
  <line
     x1="901.5"
     y1="568"
     x2="905.03553390593"
     y2="571.53553390593"
     style="stroke:#0b0;stroke-width:2;"
     id="line106" />
  <line
     x1="901.5"
     y1="568"
     x2="905.03553390593"
     y2="564.46446609407"
     style="stroke:#0b0;stroke-width:2;"
     id="line108" />
  <line
     x1="689"
     y1="634"
     x2="692.53553390593"
     y2="637.53553390593"
     style="stroke:#0b0;stroke-width:2;"
     id="line110" />
  <line
     x1="689"
     y1="634"
     x2="692.53553390593"
     y2="630.46446609407"
     style="stroke:#0b0;stroke-width:2;"
     id="line112" />
  <line
     x1="935"
     y1="259"
     x2="925"
     y2="259"
     style="stroke:#cb0;stroke-width:1;"
     id="line114" />
  <line
     x1="728"
     y1="118"
     x2="718"
     y2="118"
     style="stroke:#cb0;stroke-width:1;"
     id="line116" />
  <line
     x1="925"
     y1="259"
     x2="728"
     y2="118"
     style="stroke:#cb0;stroke-width:1;"
     id="line118" />
  <line
     x1="927.5"
     y1="259"
     x2="931.03553390593"
     y2="262.53553390593"
     style="stroke:#cb0;stroke-width:2;"
     id="line120" />
  <line
     x1="927.5"
     y1="259"
     x2="931.03553390593"
     y2="255.46446609407"
     style="stroke:#cb0;stroke-width:2;"
     id="line122" />
  <line
     x1="723"
     y1="118"
     x2="726.53553390593"
     y2="121.53553390593"
     style="stroke:#cb0;stroke-width:2;"
     id="line124" />
  <line
     x1="723"
     y1="118"
     x2="726.53553390593"
     y2="114.46446609407"
     style="stroke:#cb0;stroke-width:2;"
     id="line126" />
  <line
     x1="568"
     y1="462"
     x2="558"
     y2="462"
     style="stroke:#cb0;stroke-width:1;"
     id="line128" />
  <line
     x1="394"
     y1="492"
     x2="384"
     y2="492"
     style="stroke:#cb0;stroke-width:1;"
     id="line130" />
  <line
     x1="558"
     y1="462"
     x2="394"
     y2="492"
     style="stroke:#cb0;stroke-width:1;"
     id="line132" />
  <line
     x1="560.5"
     y1="462"
     x2="564.03553390593"
     y2="465.53553390593"
     style="stroke:#cb0;stroke-width:2;"
     id="line134" />
  <line
     x1="560.5"
     y1="462"
     x2="564.03553390593"
     y2="458.46446609407"
     style="stroke:#cb0;stroke-width:2;"
     id="line136" />
  <line
     x1="389"
     y1="492"
     x2="392.53553390593"
     y2="495.53553390593"
     style="stroke:#cb0;stroke-width:2;"
     id="line138" />
  <line
     x1="389"
     y1="492"
     x2="392.53553390593"
     y2="488.46446609407"
     style="stroke:#cb0;stroke-width:2;"
     id="line140" />
  <rect
     width="116"
     height="20"
     x="276"
     y="80"
     style="fill:#007;stroke:black;"
     id="rect142" />
  <text
     width="116"
     height="20"
     x="281"
     y="94"
     style="fill:#fff;"
     font-family="Arial"
     font-size="16px"
     id="text144"> articles</text>
  <rect
     width="116"
     height="20"
     x="276"
     y="100"
     style="fill:#aea;stroke:black;"
     id="rect146" />
  <text
     width="116"
     height="20"
     x="281"
     y="114"
     style="fill:black;"
     font-family="Arial"
     font-size="16px"
     id="text148">id</text>
  <rect
     width="116"
     height="20"
     x="276"
     y="120"
     style="fill:none;stroke:black;"
     id="rect150" />
  <text
     width="116"
     height="20"
     x="281"
     y="134"
     style="fill:black;"
     font-family="Arial"
     font-size="16px"
     id="text152">category_id</text>
  <rect
     width="116"
     height="20"
     x="276"
     y="140"
     style="fill:none;stroke:black;"
     id="rect154" />
  <text
     width="116"
     height="20"
     x="281"
     y="154"
     style="fill:black;"
     font-family="Arial"
     font-size="16px"
     id="text156">unit_id</text>
  <rect
     width="116"
     height="20"
     x="276"
     y="160"
     style="fill:none;stroke:black;"
     id="rect158" />
  <text
     width="116"
     height="20"
     x="281"
     y="174"
     style="fill:black;"
     font-family="Arial"
     font-size="16px"
     id="text160">purchase_price</text>
  <rect
     width="116"
     height="20"
     x="276"
     y="180"
     style="fill:none;stroke:black;"
     id="rect162" />
  <text
     width="116"
     height="20"
     x="281"
     y="194"
     style="fill:black;"
     font-family="Arial"
     font-size="16px"
     id="text164">sales_price</text>
  <rect
     width="112"
     height="20"
     x="267"
     y="284"
     style="fill:#007;stroke:black;"
     id="rect166" />
  <text
     width="112"
     height="20"
     x="272"
     y="298"
     style="fill:#fff;"
     font-family="Arial"
     font-size="16px"
     id="text168"> article_supplier</text>
  <rect
     width="112"
     height="20"
     x="267"
     y="304"
     style="fill:#aea;stroke:black;"
     id="rect170" />
  <text
     width="112"
     height="20"
     x="272"
     y="318"
     style="fill:black;"
     font-family="Arial"
     font-size="16px"
     id="text172">article_id</text>
  <rect
     width="112"
     height="20"
     x="267"
     y="324"
     style="fill:#aea;stroke:black;"
     id="rect174" />
  <text
     width="112"
     height="20"
     x="272"
     y="338"
     style="fill:black;"
     font-family="Arial"
     font-size="16px"
     id="text176">supplier_id</text>
  <rect
     width="85"
     height="20"
     x="43"
     y="47"
     style="fill:#007;stroke:black;"
     id="rect178" />
  <text
     width="85"
     height="20"
     x="48"
     y="61"
     style="fill:#fff;"
     font-family="Arial"
     font-size="16px"
     id="text180"> categories</text>
  <rect
     width="85"
     height="20"
     x="43"
     y="67"
     style="fill:#aea;stroke:black;"
     id="rect182" />
  <text
     width="85"
     height="20"
     x="48"
     y="81"
     style="fill:black;"
     font-family="Arial"
     font-size="16px"
     id="text184">id</text>
  <rect
     width="85"
     height="20"
     x="43"
     y="87"
     style="fill:none;stroke:black;"
     id="rect186" />
  <text
     width="85"
     height="20"
     x="48"
     y="101"
     style="fill:black;"
     font-family="Arial"
     font-size="16px"
     id="text188">name</text>
  <rect
     width="74"
     height="20"
     x="644"
     y="88"
     style="fill:#007;stroke:black;"
     id="rect190" />
  <text
     width="74"
     height="20"
     x="649"
     y="102"
     style="fill:#fff;"
     font-family="Arial"
     font-size="16px"
     id="text192"> directions</text>
  <rect
     width="74"
     height="20"
     x="644"
     y="108"
     style="fill:#aea;stroke:black;"
     id="rect194" />
  <text
     width="74"
     height="20"
     x="649"
     y="122"
     style="fill:black;"
     font-family="Arial"
     font-size="16px"
     id="text196">id</text>
  <rect
     width="74"
     height="20"
     x="644"
     y="128"
     style="fill:none;stroke:black;"
     id="rect198" />
  <text
     width="74"
     height="20"
     x="649"
     y="142"
     style="fill:black;"
     font-family="Arial"
     font-size="16px"
     id="text200">name</text>
  <rect
     width="74"
     height="20"
     x="644"
     y="148"
     style="fill:none;stroke:black;"
     id="rect202" />
  <text
     width="74"
     height="20"
     x="649"
     y="162"
     style="fill:black;"
     font-family="Arial"
     font-size="16px"
     id="text204">multiplier</text>
  <rect
     width="137"
     height="20"
     x="909"
     y="418"
     style="fill:#007;stroke:black;"
     id="rect206" />
  <text
     width="137"
     height="20"
     x="914"
     y="432"
     style="fill:#fff;"
     font-family="Arial"
     font-size="16px"
     id="text208"> movements</text>
  <rect
     width="137"
     height="20"
     x="909"
     y="438"
     style="fill:#aea;stroke:black;"
     id="rect210" />
  <text
     width="137"
     height="20"
     x="914"
     y="452"
     style="fill:black;"
     font-family="Arial"
     font-size="16px"
     id="text212">id</text>
  <rect
     width="137"
     height="20"
     x="909"
     y="458"
     style="fill:none;stroke:black;"
     id="rect214" />
  <text
     width="137"
     height="20"
     x="914"
     y="472"
     style="fill:black;"
     font-family="Arial"
     font-size="16px"
     id="text216">article_id</text>
  <rect
     width="137"
     height="20"
     x="909"
     y="478"
     style="fill:none;stroke:black;"
     id="rect218" />
  <text
     width="137"
     height="20"
     x="914"
     y="492"
     style="fill:black;"
     font-family="Arial"
     font-size="16px"
     id="text220">quantity</text>
  <rect
     width="137"
     height="20"
     x="909"
     y="498"
     style="fill:none;stroke:black;"
     id="rect222" />
  <text
     width="137"
     height="20"
     x="914"
     y="512"
     style="fill:black;"
     font-family="Arial"
     font-size="16px"
     id="text224">date_time</text>
  <rect
     width="137"
     height="20"
     x="909"
     y="518"
     style="fill:none;stroke:black;"
     id="rect226" />
  <text
     width="137"
     height="20"
     x="914"
     y="532"
     style="fill:black;"
     font-family="Arial"
     font-size="16px"
     id="text228">movement_type_id</text>
  <rect
     width="137"
     height="20"
     x="909"
     y="538"
     style="fill:none;stroke:black;"
     id="rect230" />
  <text
     width="137"
     height="20"
     x="914"
     y="552"
     style="fill:black;"
     font-family="Arial"
     font-size="16px"
     id="text232">purchase_id</text>
  <rect
     width="137"
     height="20"
     x="909"
     y="558"
     style="fill:none;stroke:black;"
     id="rect234" />
  <text
     width="137"
     height="20"
     x="914"
     y="572"
     style="fill:black;"
     font-family="Arial"
     font-size="16px"
     id="text236">sale_id</text>
  <rect
     width="123"
     height="20"
     x="935"
     y="189"
     style="fill:#007;stroke:black;"
     id="rect238" />
  <text
     width="123"
     height="20"
     x="940"
     y="203"
     style="fill:#fff;"
     font-family="Arial"
     font-size="16px"
     id="text240"> movement_types</text>
  <rect
     width="123"
     height="20"
     x="935"
     y="209"
     style="fill:#aea;stroke:black;"
     id="rect242" />
  <text
     width="123"
     height="20"
     x="940"
     y="223"
     style="fill:black;"
     font-family="Arial"
     font-size="16px"
     id="text244">id</text>
  <rect
     width="123"
     height="20"
     x="935"
     y="229"
     style="fill:none;stroke:black;"
     id="rect246" />
  <text
     width="123"
     height="20"
     x="940"
     y="243"
     style="fill:black;"
     font-family="Arial"
     font-size="16px"
     id="text248">name</text>
  <rect
     width="123"
     height="20"
     x="935"
     y="249"
     style="fill:none;stroke:black;"
     id="rect250" />
  <text
     width="123"
     height="20"
     x="940"
     y="263"
     style="fill:black;"
     font-family="Arial"
     font-size="16px"
     id="text252">direction_id</text>
  <rect
     width="84"
     height="20"
     x="568"
     y="412"
     style="fill:#007;stroke:black;"
     id="rect254" />
  <text
     width="84"
     height="20"
     x="573"
     y="426"
     style="fill:#fff;"
     font-family="Arial"
     font-size="16px"
     id="text256"> purchases</text>
  <rect
     width="84"
     height="20"
     x="568"
     y="432"
     style="fill:#aea;stroke:black;"
     id="rect258" />
  <text
     width="84"
     height="20"
     x="573"
     y="446"
     style="fill:black;"
     font-family="Arial"
     font-size="16px"
     id="text260">id</text>
  <rect
     width="84"
     height="20"
     x="568"
     y="452"
     style="fill:none;stroke:black;"
     id="rect262" />
  <text
     width="84"
     height="20"
     x="573"
     y="466"
     style="fill:black;"
     font-family="Arial"
     font-size="16px"
     id="text264">supplier_id</text>
  <rect
     width="84"
     height="20"
     x="568"
     y="472"
     style="fill:none;stroke:black;"
     id="rect266" />
  <text
     width="84"
     height="20"
     x="573"
     y="486"
     style="fill:black;"
     font-family="Arial"
     font-size="16px"
     id="text268">order_date</text>
  <rect
     width="75"
     height="20"
     x="609"
     y="604"
     style="fill:#007;stroke:black;"
     id="rect270" />
  <text
     width="75"
     height="20"
     x="614"
     y="618"
     style="fill:#fff;"
     font-family="Arial"
     font-size="16px"
     id="text272"> sales</text>
  <rect
     width="75"
     height="20"
     x="609"
     y="624"
     style="fill:#aea;stroke:black;"
     id="rect274" />
  <text
     width="75"
     height="20"
     x="614"
     y="638"
     style="fill:black;"
     font-family="Arial"
     font-size="16px"
     id="text276">id</text>
  <rect
     width="75"
     height="20"
     x="609"
     y="644"
     style="fill:none;stroke:black;"
     id="rect278" />
  <text
     width="75"
     height="20"
     x="614"
     y="658"
     style="fill:black;"
     font-family="Arial"
     font-size="16px"
     id="text280">sale_date</text>
  <rect
     width="71"
     height="20"
     x="313"
     y="462"
     style="fill:#007;stroke:black;"
     id="rect282" />
  <text
     width="71"
     height="20"
     x="318"
     y="476"
     style="fill:#fff;"
     font-family="Arial"
     font-size="16px"
     id="text284"> suppliers</text>
  <rect
     width="71"
     height="20"
     x="313"
     y="482"
     style="fill:#aea;stroke:black;"
     id="rect286" />
  <text
     width="71"
     height="20"
     x="318"
     y="496"
     style="fill:black;"
     font-family="Arial"
     font-size="16px"
     id="text288">id</text>
  <rect
     width="71"
     height="20"
     x="313"
     y="502"
     style="fill:none;stroke:black;"
     id="rect290" />
  <text
     width="71"
     height="20"
     x="318"
     y="516"
     style="fill:black;"
     font-family="Arial"
     font-size="16px"
     id="text292">name</text>
  <rect
     width="50"
     height="20"
     x="61"
     y="235"
     style="fill:#007;stroke:black;"
     id="rect294" />
  <text
     width="50"
     height="20"
     x="66"
     y="249"
     style="fill:#fff;"
     font-family="Arial"
     font-size="16px"
     id="text296"> units</text>
  <rect
     width="50"
     height="20"
     x="61"
     y="255"
     style="fill:#aea;stroke:black;"
     id="rect298" />
  <text
     width="50"
     height="20"
     x="66"
     y="269"
     style="fill:black;"
     font-family="Arial"
     font-size="16px"
     id="text300">id</text>
  <rect
     width="50"
     height="20"
     x="61"
     y="275"
     style="fill:none;stroke:black;"
     id="rect302" />
  <text
     width="50"
     height="20"
     x="66"
     y="289"
     style="fill:black;"
     font-family="Arial"
     font-size="16px"
     id="text304">name</text>
</svg>
